<?xml version="1.0" encoding="UTF-8"?>
<!DOCTYPE svg PUBLIC "-//W3C//DTD SVG 1.1//EN" "http://www.w3.org/Graphics/SVG/1.1/DTD/svg11.dtd">
<svg width="407mm" height="210mm" viewBox="0 0 40700 21000" version="1.1" xmlns="http://www.w3.org/2000/svg" stroke-width="28.222" stroke-linejoin="round" xml:space="preserve">
 <path fill="rgb(255,255,255)" stroke="none" d="M 20368,0 L 0,20957 0,20957 40735,0 40735,0 20368,20957 Z"/>
 <path fill="none" stroke="rgb(179,179,179)" stroke-linejoin="round" d="M 18534,0 L 2580,19015 2580,19015 34487,1899 34487,1899 18534,19015 Z"/>
 <path fill="none" stroke="rgb(179,179,179)" stroke-linejoin="round" d="M 2580,0 L 2580,1897"/>
 <path fill="none" stroke="rgb(179,179,179)" stroke-linejoin="round" d="M 7898,0 L 7898,1897"/>
 <path fill="none" stroke="rgb(179,179,179)" stroke-linejoin="round" d="M 13216,0 L 13216,1897"/>
 <path fill="none" stroke="rgb(179,179,179)" stroke-linejoin="round" d="M 18534,0 L 18534,1897"/>
 <path fill="none" stroke="rgb(179,179,179)" stroke-linejoin="round" d="M 23851,0 L 23851,1897"/>
 <path fill="none" stroke="rgb(179,179,179)" stroke-linejoin="round" d="M 29169,0 L 29169,1897"/>
 <path fill="none" stroke="rgb(179,179,179)" stroke-linejoin="round" d="M 34487,0 L 34487,1897"/>
 <path fill="none" stroke="rgb(221,221,221)" stroke-linejoin="round" d="M 4180,0 L 4180,1897"/>
 <path fill="none" stroke="rgb(221,221,221)" stroke-linejoin="round" d="M 5117,0 L 5117,1897"/>
 <path fill="none" stroke="rgb(221,221,221)" stroke-linejoin="round" d="M 5781,0 L 5781,1897"/>
 <path fill="none" stroke="rgb(221,221,221)" stroke-linejoin="round" d="M 6297,0 L 6297,1897"/>
 <path fill="none" stroke="rgb(221,221,221)" stroke-linejoin="round" d="M 6718,0 L 6718,1897"/>
 <path fill="none" stroke="rgb(221,221,221)" stroke-linejoin="round" d="M 7074,0 L 7074,1897"/>
 <path fill="none" stroke="rgb(221,221,221)" stroke-linejoin="round" d="M 7382,0 L 7382,1897"/>
 <path fill="none" stroke="rgb(221,221,221)" stroke-linejoin="round" d="M 7654,0 L 7654,1897"/>
 <path fill="none" stroke="rgb(221,221,221)" stroke-linejoin="round" d="M 9498,0 L 9498,1897"/>
 <path fill="none" stroke="rgb(221,221,221)" stroke-linejoin="round" d="M 10435,0 L 10435,1897"/>
 <path fill="none" stroke="rgb(221,221,221)" stroke-linejoin="round" d="M 11099,0 L 11099,1897"/>
 <path fill="none" stroke="rgb(221,221,221)" stroke-linejoin="round" d="M 11615,0 L 11615,1897"/>
 <path fill="none" stroke="rgb(221,221,221)" stroke-linejoin="round" d="M 12036,0 L 12036,1897"/>
 <path fill="none" stroke="rgb(221,221,221)" stroke-linejoin="round" d="M 12392,0 L 12392,1897"/>
 <path fill="none" stroke="rgb(221,221,221)" stroke-linejoin="round" d="M 12700,0 L 12700,1897"/>
 <path fill="none" stroke="rgb(221,221,221)" stroke-linejoin="round" d="M 12972,0 L 12972,1897"/>
 <path fill="none" stroke="rgb(221,221,221)" stroke-linejoin="round" d="M 14816,0 L 14816,1897"/>
 <path fill="none" stroke="rgb(221,221,221)" stroke-linejoin="round" d="M 15753,0 L 15753,1897"/>
 <path fill="none" stroke="rgb(221,221,221)" stroke-linejoin="round" d="M 16417,0 L 16417,1897"/>
 <path fill="none" stroke="rgb(221,221,221)" stroke-linejoin="round" d="M 16933,0 L 16933,1897"/>
 <path fill="none" stroke="rgb(221,221,221)" stroke-linejoin="round" d="M 17354,0 L 17354,1897"/>
 <path fill="none" stroke="rgb(221,221,221)" stroke-linejoin="round" d="M 17710,0 L 17710,1897"/>
 <path fill="none" stroke="rgb(221,221,221)" stroke-linejoin="round" d="M 18018,0 L 18018,1897"/>
 <path fill="none" stroke="rgb(221,221,221)" stroke-linejoin="round" d="M 18290,0 L 18290,1897"/>
 <path fill="none" stroke="rgb(221,221,221)" stroke-linejoin="round" d="M 20134,0 L 20134,1897"/>
 <path fill="none" stroke="rgb(221,221,221)" stroke-linejoin="round" d="M 21070,0 L 21070,1897"/>
 <path fill="none" stroke="rgb(221,221,221)" stroke-linejoin="round" d="M 21734,0 L 21734,1897"/>
 <path fill="none" stroke="rgb(221,221,221)" stroke-linejoin="round" d="M 22250,0 L 22250,1897"/>
 <path fill="none" stroke="rgb(221,221,221)" stroke-linejoin="round" d="M 22671,0 L 22671,1897"/>
 <path fill="none" stroke="rgb(221,221,221)" stroke-linejoin="round" d="M 23027,0 L 23027,1897"/>
 <path fill="none" stroke="rgb(221,221,221)" stroke-linejoin="round" d="M 23335,0 L 23335,1897"/>
 <path fill="none" stroke="rgb(221,221,221)" stroke-linejoin="round" d="M 23607,0 L 23607,1897"/>
 <path fill="none" stroke="rgb(221,221,221)" stroke-linejoin="round" d="M 25451,0 L 25451,1897"/>
 <path fill="none" stroke="rgb(221,221,221)" stroke-linejoin="round" d="M 26388,0 L 26388,1897"/>
 <path fill="none" stroke="rgb(221,221,221)" stroke-linejoin="round" d="M 27052,0 L 27052,1897"/>
 <path fill="none" stroke="rgb(221,221,221)" stroke-linejoin="round" d="M 27568,0 L 27568,1897"/>
 <path fill="none" stroke="rgb(221,221,221)" stroke-linejoin="round" d="M 27989,0 L 27989,1897"/>
 <path fill="none" stroke="rgb(221,221,221)" stroke-linejoin="round" d="M 28345,0 L 28345,1897"/>
 <path fill="none" stroke="rgb(221,221,221)" stroke-linejoin="round" d="M 28653,0 L 28653,1897"/>
 <path fill="none" stroke="rgb(221,221,221)" stroke-linejoin="round" d="M 28925,0 L 28925,1897"/>
 <path fill="none" stroke="rgb(221,221,221)" stroke-linejoin="round" d="M 30769,0 L 30769,1897"/>
 <path fill="none" stroke="rgb(221,221,221)" stroke-linejoin="round" d="M 31706,0 L 31706,1897"/>
 <path fill="none" stroke="rgb(221,221,221)" stroke-linejoin="round" d="M 32370,0 L 32370,1897"/>
 <path fill="none" stroke="rgb(221,221,221)" stroke-linejoin="round" d="M 32886,0 L 32886,1897"/>
 <path fill="none" stroke="rgb(221,221,221)" stroke-linejoin="round" d="M 33307,0 L 33307,1897"/>
 <path fill="none" stroke="rgb(221,221,221)" stroke-linejoin="round" d="M 33663,0 L 33663,1897"/>
 <path fill="none" stroke="rgb(221,221,221)" stroke-linejoin="round" d="M 33971,0 L 33971,1897"/>
 <path fill="none" stroke="rgb(221,221,221)" stroke-linejoin="round" d="M 34243,0 L 34243,1897"/>
 <path fill="none" stroke="rgb(179,179,179)" stroke-linejoin="round" d="M 34487,0 L 2580,19014"/>
 <path fill="none" stroke="rgb(179,179,179)" stroke-linejoin="round" d="M 34487,0 L 2580,16568"/>
 <path fill="none" stroke="rgb(179,179,179)" stroke-linejoin="round" d="M 34487,0 L 2580,14123"/>
 <path fill="none" stroke="rgb(179,179,179)" stroke-linejoin="round" d="M 34487,0 L 2580,11678"/>
 <path fill="none" stroke="rgb(179,179,179)" stroke-linejoin="round" d="M 34487,0 L 2580,9233"/>
 <path fill="none" stroke="rgb(179,179,179)" stroke-linejoin="round" d="M 34487,0 L 2580,6788"/>
 <path fill="none" stroke="rgb(179,179,179)" stroke-linejoin="round" d="M 34487,0 L 2580,4343"/>
 <path fill="none" stroke="rgb(179,179,179)" stroke-linejoin="round" d="M 34487,0 L 2580,1897"/>
 <path fill="none" stroke="rgb(221,221,221)" stroke-linejoin="round" d="M 34487,0 L 2580,18277"/>
 <path fill="none" stroke="rgb(221,221,221)" stroke-linejoin="round" d="M 34487,0 L 2580,17847"/>
 <path fill="none" stroke="rgb(221,221,221)" stroke-linejoin="round" d="M 34487,0 L 2580,17541"/>
 <path fill="none" stroke="rgb(221,221,221)" stroke-linejoin="round" d="M 34487,0 L 2580,17304"/>
 <path fill="none" stroke="rgb(221,221,221)" stroke-linejoin="round" d="M 34487,0 L 2580,17111"/>
 <path fill="none" stroke="rgb(221,221,221)" stroke-linejoin="round" d="M 34487,0 L 2580,16947"/>
 <path fill="none" stroke="rgb(221,221,221)" stroke-linejoin="round" d="M 34487,0 L 2580,16805"/>
 <path fill="none" stroke="rgb(221,221,221)" stroke-linejoin="round" d="M 34487,0 L 2580,16680"/>
 <path fill="none" stroke="rgb(221,221,221)" stroke-linejoin="round" d="M 34487,0 L 2580,15832"/>
 <path fill="none" stroke="rgb(221,221,221)" stroke-linejoin="round" d="M 34487,0 L 2580,15402"/>
 <path fill="none" stroke="rgb(221,221,221)" stroke-linejoin="round" d="M 34487,0 L 2580,15096"/>
 <path fill="none" stroke="rgb(221,221,221)" stroke-linejoin="round" d="M 34487,0 L 2580,14859"/>
 <path fill="none" stroke="rgb(221,221,221)" stroke-linejoin="round" d="M 34487,0 L 2580,14665"/>
 <path fill="none" stroke="rgb(221,221,221)" stroke-linejoin="round" d="M 34487,0 L 2580,14502"/>
 <path fill="none" stroke="rgb(221,221,221)" stroke-linejoin="round" d="M 34487,0 L 2580,14360"/>
 <path fill="none" stroke="rgb(221,221,221)" stroke-linejoin="round" d="M 34487,0 L 2580,14235"/>
 <path fill="none" stroke="rgb(221,221,221)" stroke-linejoin="round" d="M 34487,0 L 2580,13387"/>
 <path fill="none" stroke="rgb(221,221,221)" stroke-linejoin="round" d="M 34487,0 L 2580,12956"/>
 <path fill="none" stroke="rgb(221,221,221)" stroke-linejoin="round" d="M 34487,0 L 2580,12651"/>
 <path fill="none" stroke="rgb(221,221,221)" stroke-linejoin="round" d="M 34487,0 L 2580,12414"/>
 <path fill="none" stroke="rgb(221,221,221)" stroke-linejoin="round" d="M 34487,0 L 2580,12220"/>
 <path fill="none" stroke="rgb(221,221,221)" stroke-linejoin="round" d="M 34487,0 L 2580,12056"/>
 <path fill="none" stroke="rgb(221,221,221)" stroke-linejoin="round" d="M 34487,0 L 2580,11915"/>
 <path fill="none" stroke="rgb(221,221,221)" stroke-linejoin="round" d="M 34487,0 L 2580,11790"/>
 <path fill="none" stroke="rgb(221,221,221)" stroke-linejoin="round" d="M 34487,0 L 2580,10942"/>
 <path fill="none" stroke="rgb(221,221,221)" stroke-linejoin="round" d="M 34487,0 L 2580,10511"/>
 <path fill="none" stroke="rgb(221,221,221)" stroke-linejoin="round" d="M 34487,0 L 2580,10206"/>
 <path fill="none" stroke="rgb(221,221,221)" stroke-linejoin="round" d="M 34487,0 L 2580,9969"/>
 <path fill="none" stroke="rgb(221,221,221)" stroke-linejoin="round" d="M 34487,0 L 2580,9776"/>
 <path fill="none" stroke="rgb(221,221,221)" stroke-linejoin="round" d="M 34487,0 L 2580,9612"/>
 <path fill="none" stroke="rgb(221,221,221)" stroke-linejoin="round" d="M 34487,0 L 2580,9470"/>
 <path fill="none" stroke="rgb(221,221,221)" stroke-linejoin="round" d="M 34487,0 L 2580,9345"/>
 <path fill="none" stroke="rgb(221,221,221)" stroke-linejoin="round" d="M 34487,0 L 2580,8497"/>
 <path fill="none" stroke="rgb(221,221,221)" stroke-linejoin="round" d="M 34487,0 L 2580,8067"/>
 <path fill="none" stroke="rgb(221,221,221)" stroke-linejoin="round" d="M 34487,0 L 2580,7761"/>
 <path fill="none" stroke="rgb(221,221,221)" stroke-linejoin="round" d="M 34487,0 L 2580,7524"/>
 <path fill="none" stroke="rgb(221,221,221)" stroke-linejoin="round" d="M 34487,0 L 2580,7331"/>
 <path fill="none" stroke="rgb(221,221,221)" stroke-linejoin="round" d="M 34487,0 L 2580,7167"/>
 <path fill="none" stroke="rgb(221,221,221)" stroke-linejoin="round" d="M 34487,0 L 2580,7025"/>
 <path fill="none" stroke="rgb(221,221,221)" stroke-linejoin="round" d="M 34487,0 L 2580,6900"/>
 <path fill="none" stroke="rgb(221,221,221)" stroke-linejoin="round" d="M 34487,0 L 2580,6052"/>
 <path fill="none" stroke="rgb(221,221,221)" stroke-linejoin="round" d="M 34487,0 L 2580,5621"/>
 <path fill="none" stroke="rgb(221,221,221)" stroke-linejoin="round" d="M 34487,0 L 2580,5316"/>
 <path fill="none" stroke="rgb(221,221,221)" stroke-linejoin="round" d="M 34487,0 L 2580,5079"/>
 <path fill="none" stroke="rgb(221,221,221)" stroke-linejoin="round" d="M 34487,0 L 2580,4885"/>
 <path fill="none" stroke="rgb(221,221,221)" stroke-linejoin="round" d="M 34487,0 L 2580,4722"/>
 <path fill="none" stroke="rgb(221,221,221)" stroke-linejoin="round" d="M 34487,0 L 2580,4580"/>
 <path fill="none" stroke="rgb(221,221,221)" stroke-linejoin="round" d="M 34487,0 L 2580,4455"/>
 <path fill="none" stroke="rgb(221,221,221)" stroke-linejoin="round" d="M 34487,0 L 2580,3607"/>
 <path fill="none" stroke="rgb(221,221,221)" stroke-linejoin="round" d="M 34487,0 L 2580,3176"/>
 <path fill="none" stroke="rgb(221,221,221)" stroke-linejoin="round" d="M 34487,0 L 2580,2871"/>
 <path fill="none" stroke="rgb(221,221,221)" stroke-linejoin="round" d="M 34487,0 L 2580,2634"/>
 <path fill="none" stroke="rgb(221,221,221)" stroke-linejoin="round" d="M 34487,0 L 2580,2440"/>
 <path fill="none" stroke="rgb(221,221,221)" stroke-linejoin="round" d="M 34487,0 L 2580,2276"/>
 <path fill="none" stroke="rgb(221,221,221)" stroke-linejoin="round" d="M 34487,0 L 2580,2134"/>
 <path fill="none" stroke="rgb(221,221,221)" stroke-linejoin="round" d="M 34487,0 L 2580,2009"/>
 <path fill="none" stroke="rgb(179,179,179)" stroke-linejoin="round" d="M 2580,0 L 2580,19164"/>
 <path fill="none" stroke="rgb(179,179,179)" stroke-linejoin="round" d="M 2580,0 L 2580,19164"/>
 <path fill="none" stroke="rgb(179,179,179)" stroke-linejoin="round" d="M 7898,0 L 7898,19164"/>
 <path fill="none" stroke="rgb(179,179,179)" stroke-linejoin="round" d="M 7898,0 L 7898,19164"/>
 <path fill="none" stroke="rgb(179,179,179)" stroke-linejoin="round" d="M 13216,0 L 13216,19164"/>
 <path fill="none" stroke="rgb(179,179,179)" stroke-linejoin="round" d="M 13216,0 L 13216,19164"/>
 <path fill="none" stroke="rgb(179,179,179)" stroke-linejoin="round" d="M 18534,0 L 18534,19164"/>
 <path fill="none" stroke="rgb(179,179,179)" stroke-linejoin="round" d="M 18534,0 L 18534,19164"/>
 <path fill="none" stroke="rgb(179,179,179)" stroke-linejoin="round" d="M 23851,0 L 23851,19164"/>
 <path fill="none" stroke="rgb(179,179,179)" stroke-linejoin="round" d="M 23851,0 L 23851,19164"/>
 <path fill="none" stroke="rgb(179,179,179)" stroke-linejoin="round" d="M 29169,0 L 29169,19164"/>
 <path fill="none" stroke="rgb(179,179,179)" stroke-linejoin="round" d="M 29169,0 L 29169,19164"/>
 <path fill="none" stroke="rgb(179,179,179)" stroke-linejoin="round" d="M 34487,0 L 34487,19164"/>
 <path fill="none" stroke="rgb(179,179,179)" stroke-linejoin="round" d="M 34487,0 L 34487,19164"/>
 <path fill="none" stroke="rgb(179,179,179)" stroke-linejoin="round" d="M 2580,0 L 34487,19014"/>
 <path fill="none" stroke="rgb(179,179,179)" stroke-linejoin="round" d="M 2430,0 L 2580,19014"/>
 <path fill="none" stroke="rgb(179,179,179)" stroke-linejoin="round" d="M 2430,0 L 2580,19014"/>
 <path fill="none" stroke="rgb(179,179,179)" stroke-linejoin="round" d="M 2430,0 L 2580,16568"/>
 <path fill="none" stroke="rgb(179,179,179)" stroke-linejoin="round" d="M 2430,0 L 2580,16568"/>
 <path fill="none" stroke="rgb(179,179,179)" stroke-linejoin="round" d="M 2430,0 L 2580,14123"/>
 <path fill="none" stroke="rgb(179,179,179)" stroke-linejoin="round" d="M 2430,0 L 2580,14123"/>
 <path fill="none" stroke="rgb(179,179,179)" stroke-linejoin="round" d="M 2430,0 L 2580,11678"/>
 <path fill="none" stroke="rgb(179,179,179)" stroke-linejoin="round" d="M 2430,0 L 2580,11678"/>
 <path fill="none" stroke="rgb(179,179,179)" stroke-linejoin="round" d="M 2430,0 L 2580,9233"/>
 <path fill="none" stroke="rgb(179,179,179)" stroke-linejoin="round" d="M 2430,0 L 2580,9233"/>
 <path fill="none" stroke="rgb(179,179,179)" stroke-linejoin="round" d="M 2430,0 L 2580,6788"/>
 <path fill="none" stroke="rgb(179,179,179)" stroke-linejoin="round" d="M 2430,0 L 2580,6788"/>
 <path fill="none" stroke="rgb(179,179,179)" stroke-linejoin="round" d="M 2430,0 L 2580,4343"/>
 <path fill="none" stroke="rgb(179,179,179)" stroke-linejoin="round" d="M 2430,0 L 2580,4343"/>
 <path fill="none" stroke="rgb(179,179,179)" stroke-linejoin="round" d="M 2430,0 L 2580,1897"/>
 <path fill="none" stroke="rgb(179,179,179)" stroke-linejoin="round" d="M 2430,0 L 2580,1897"/>
 <path fill="none" stroke="rgb(179,179,179)" stroke-linejoin="round" d="M 2580,0 L 2580,19014"/>
 <path fill="none" stroke="rgb(87,157,28)" stroke-width="80" stroke-linejoin="round" d="M 2580,0 L 2668,16090 2756,16088 2843,16086 2931,16083 3017,16081 3104,16079 3189,16076 3274,16073 3358,16069 3440,16066 3522,16061 3602,16057 3680,16051 3758,16045 3833,16039 3907,16032 3978,16024 4048,16015 4115,16005 4180,15995 4243,15983 4304,15971 4362,15958 4418,15943 4472,15929 4524,15913 4575,15898 4624,15881 4671,15865 4717,15849 4761,15832 4804,15816 4846,15800 4887,15784 4927,15769 4966,15754 5005,15740 5043,15726 5080,15714 5117,15702 5153,15692 5190,15683 5226,15675 5261,15667 5296,15661 5331,15656 5366,15651 5400,15647 5434,15644 5467,15641 5501,15638 5533,15636 5566,15633 5598,15631 5629,15629 5660,15626 5691,15623 5722,15620 5752,15617 5781,15612 5810,15608 5839,15602 5868,15596 5895,15589 5923,15582 5950,15574 5977,15565 6003,15556 6030,15546 6055,15536 6081,15526 6106,15515 6131,15503 6155,15492 6180,15480 6203,15468 6227,15455 6251,15443 6274,15430 6297,15417 6319,15404 6342,15391 6364,15378 6386,15366 6408,15353 6429,15341 6451,15328 6472,15317 6493,15305 6514,15295 6535,15284 6556,15275 6576,15266 6597,15258 6617,15251 6637,15244 6658,15239 6678,15235 6698,15231 6718,15229 6738,15229 6757,15229 6777,15231 6797,15234 6816,15238 6836,15243 6855,15248 6873,15255 6892,15261 6910,15269 6929,15276 6946,15284 6964,15292 6981,15300 6997,15308 7014,15315 7029,15323 7045,15329 7059,15336 7074,15341 7088,15346 7101,15350 7127,15353 7139,15357 7152,15358 7165,15358 7177,15358 7191,15357 7204,15356 7218,15354 7233,15351 7248,15349 7264,15346 7281,15342 7299,15339 7318,15335 7338,15331 7359,15327 7382,15323 7406,15319 7432,15314 7458,15310 7484,15307 7511,15303 7537,15300 7562,15297 7587,15295 7609,15293 7630,15292 7649,15292 7665,15293 7678,15294 7694,15297 7693,15306 7685,15319 7673,15328 7654,15339 7630,15351 7601,15364 7570,15379 7536,15395 7502,15410 7469,15426 7439,15441 7412,15455 7390,15467 7375,15477 7368,15484 7384,15489 7410,15487 7449,15479 7503,15467 7574,15449 7662,15425 7769,15395 7898,15358 8047,15314 8217,15262 8407,15203 8614,15137 8838,15064 9077,14985 9329,14901 9594,14811 9869,14717 10154,14618 10447,14514 10746,14408 11051,14298 11360,14185 11671,14070 11983,13953 12295,13834 12606,13714 12913,13593 13216,13472 13513,13351 13804,13231 14090,13111 14372,12991 14649,12871 14922,12752 15192,12633 15458,12514 15722,12395 15982,12276 16241,12157 16498,12037 16753,11917 17008,11797 17262,11677 17515,11556 17769,11434 18023,11312 18277,11189 18534,11066 18791,10942 19050,10816 19310,10690 19572,10563 19835,10437 20099,10309 20364,10181 20629,10052 20895,9923 21163,9794 21430,9665 21699,9535 21967,9406 22236,9277 22506,9148 22775,9020 23044,8892 23313,8764 23582,8638 23851,8511 24119,8386 24386,8262 24654,8138 24921,8015 25188,7893 25454,7771 25720,7650 25986,7530 26252,7410 26517,7290 26783,7171 27048,7052 27313,6934 27578,6815 27843,6697 28108,6579 28373,6461 28638,6342 28903,6224 29169,6106 29434,5987 29699,5868 29965,5749 30230,5630 30496,5510 30761,5390 31027,5270 31293,5150 31559,5030 31825,4909 32091,4789 32357,4668 32623,4547 32889,4426 33155,4305 33422,4184 33688,4062 33954,3941 34220,3820 34487,3699"/>
 <path fill="rgb(87,157,28)" stroke="none" d="M 2455,0 L 2705,16215 2580,16215 2455,15965 Z"/>
 <path fill="none" stroke="rgb(87,157,28)" stroke-linejoin="round" d="M 2455,0 L 2705,16215 2580,16215 2455,15965 Z"/>
 <path fill="rgb(87,157,28)" stroke="none" d="M 4055,0 L 4305,16108 4180,16108 4055,15858 Z"/>
 <path fill="none" stroke="rgb(87,157,28)" stroke-linejoin="round" d="M 4055,0 L 4305,16108 4180,16108 4055,15858 Z"/>
 <path fill="rgb(87,157,28)" stroke="none" d="M 4992,0 L 5242,15817 5117,15817 4992,15567 Z"/>
 <path fill="none" stroke="rgb(87,157,28)" stroke-linejoin="round" d="M 4992,0 L 5242,15817 5117,15817 4992,15567 Z"/>
 <path fill="rgb(87,157,28)" stroke="none" d="M 5656,0 L 5906,15733 5781,15733 5656,15483 Z"/>
 <path fill="none" stroke="rgb(87,157,28)" stroke-linejoin="round" d="M 5656,0 L 5906,15733 5781,15733 5656,15483 Z"/>
 <path fill="rgb(87,157,28)" stroke="none" d="M 6172,0 L 6422,15529 6297,15529 6172,15279 Z"/>
 <path fill="none" stroke="rgb(87,157,28)" stroke-linejoin="round" d="M 6172,0 L 6422,15529 6297,15529 6172,15279 Z"/>
 <path fill="rgb(87,157,28)" stroke="none" d="M 6593,0 L 6843,15354 6718,15354 6593,15104 Z"/>
 <path fill="none" stroke="rgb(87,157,28)" stroke-linejoin="round" d="M 6593,0 L 6843,15354 6718,15354 6593,15104 Z"/>
 <path fill="rgb(87,157,28)" stroke="none" d="M 6949,0 L 7199,15471 7074,15471 6949,15221 Z"/>
 <path fill="none" stroke="rgb(87,157,28)" stroke-linejoin="round" d="M 6949,0 L 7199,15471 7074,15471 6949,15221 Z"/>
 <path fill="rgb(87,157,28)" stroke="none" d="M 7257,0 L 7507,15444 7382,15444 7257,15194 Z"/>
 <path fill="none" stroke="rgb(87,157,28)" stroke-linejoin="round" d="M 7257,0 L 7507,15444 7382,15444 7257,15194 Z"/>
 <path fill="rgb(87,157,28)" stroke="none" d="M 7529,0 L 7779,15476 7654,15476 7529,15226 Z"/>
 <path fill="none" stroke="rgb(87,157,28)" stroke-linejoin="round" d="M 7529,0 L 7779,15476 7654,15476 7529,15226 Z"/>
 <path fill="rgb(87,157,28)" stroke="none" d="M 7773,0 L 8023,15439 7898,15439 7773,15189 Z"/>
 <path fill="none" stroke="rgb(87,157,28)" stroke-linejoin="round" d="M 7773,0 L 8023,15439 7898,15439 7773,15189 Z"/>
 <path fill="rgb(87,157,28)" stroke="none" d="M 13091,0 L 13341,13476 13216,13476 13091,13226 Z"/>
 <path fill="none" stroke="rgb(87,157,28)" stroke-linejoin="round" d="M 13091,0 L 13341,13476 13216,13476 13091,13226 Z"/>
 <path fill="rgb(87,157,28)" stroke="none" d="M 18409,0 L 18659,11067 18534,11067 18409,10817 Z"/>
 <path fill="none" stroke="rgb(87,157,28)" stroke-linejoin="round" d="M 18409,0 L 18659,11067 18534,11067 18409,10817 Z"/>
 <path fill="rgb(87,157,28)" stroke="none" d="M 23726,0 L 23976,8511 23851,8511 23726,8261 Z"/>
 <path fill="none" stroke="rgb(87,157,28)" stroke-linejoin="round" d="M 23726,0 L 23976,8511 23851,8511 23726,8261 Z"/>
 <path fill="rgb(87,157,28)" stroke="none" d="M 29044,0 L 29294,6112 29169,6112 29044,5862 Z"/>
 <path fill="none" stroke="rgb(87,157,28)" stroke-linejoin="round" d="M 29044,0 L 29294,6112 29169,6112 29044,5862 Z"/>
 <path fill="rgb(87,157,28)" stroke="none" d="M 34362,0 L 34612,3702 34487,3702 34362,3452 Z"/>
 <path fill="none" stroke="rgb(87,157,28)" stroke-linejoin="round" d="M 34362,0 L 34612,3702 34487,3702 34362,3452 Z"/>
 <path fill="none" stroke="rgb(255,66,14)" stroke-width="80" stroke-linejoin="round" d="M 2580,0 L 2668,16340 2756,16326 2843,16313 2931,16300 3017,16286 3104,16273 3189,16260 3274,16247 3358,16234 3440,16222 3522,16209 3602,16197 3680,16185 3758,16173 3833,16162 3907,16150 3978,16140 4048,16129 4115,16119 4180,16109 4243,16100 4304,16091 4362,16082 4418,16074 4472,16066 4524,16058 4575,16051 4624,16044 4671,16037 4717,16030 4761,16023 4804,16016 4846,16009 4887,16002 4927,15995 4966,15987 5005,15980 5043,15972 5080,15964 5117,15956 5153,15948 5190,15939 5226,15929 5261,15920 5296,15910 5331,15900 5366,15890 5400,15879 5434,15869 5467,15859 5501,15849 5533,15839 5566,15829 5598,15819 5629,15809 5660,15800 5691,15791 5722,15783 5752,15775 5781,15768 5810,15761 5839,15754 5868,15748 5895,15743 5923,15738 5950,15734 5977,15730 6003,15726 6030,15723 6055,15720 6081,15717 6106,15714 6131,15712 6155,15709 6180,15707 6203,15704 6227,15702 6251,15699 6274,15697 6297,15694 6319,15690 6342,15687 6364,15683 6386,15679 6408,15675 6429,15671 6451,15666 6472,15662 6493,15657 6514,15652 6535,15646 6556,15641 6576,15635 6597,15629 6617,15624 6637,15618 6658,15611 6678,15605 6698,15599 6718,15593 6738,15586 6757,15580 6777,15573 6797,15567 6816,15560 6836,15554 6855,15547 6873,15541 6892,15535 6910,15528 6929,15522 6946,15516 6964,15510 6981,15504 6997,15498 7014,15492 7029,15487 7045,15482 7059,15477 7074,15472 7088,15467 7101,15463 7127,15458 7139,15450 7152,15446 7165,15442 7177,15439 7191,15435 7204,15430 7218,15426 7233,15422 7248,15417 7264,15412 7281,15407 7299,15401 7318,15395 7338,15388 7359,15381 7382,15373 7406,15365 7432,15356 7458,15347 7484,15337 7511,15327 7537,15317 7562,15307 7587,15298 7609,15289 7630,15280 7649,15272 7665,15266 7678,15260 7694,15255 7685,15250 7673,15254 7654,15260 7630,15268 7601,15278 7570,15290 7536,15303 7502,15317 7469,15331 7439,15344 7412,15357 7390,15368 7375,15377 7368,15383 7384,15385 7410,15379 7449,15368 7503,15352 7574,15330 7662,15301 7769,15264 7898,15220 8047,15168 8217,15106 8407,15037 8614,14959 8838,14874 9077,14782 9329,14684 9594,14580 9869,14470 10154,14357 10447,14239 10746,14117 11051,13992 11360,13865 11671,13735 11983,13605 12295,13473 12606,13341 12913,13209 13216,13077 13513,12947 13804,12819 14090,12692 14372,12567 14649,12443 14922,12320 15192,12198 15458,12078 15722,11958 15982,11839 16241,11720 16498,11603 16753,11485 17008,11368 17262,11251 17515,11134 17769,11016 18023,10899 18277,10781 18534,10662 18791,10543 19050,10425 19310,10304 19572,10183 19835,10061 20099,9939 20364,9816 20629,9693 20895,9570 21163,9446 21430,9322 21699,9197 21967,9072 22236,8948 22506,8823 22775,8698 23044,8573 23313,8448 23582,8323 23851,8199 24119,8075 24386,7950 24654,7827 24921,7703 25188,7580 25454,7457 25720,7334 25986,7211 26252,7088 26517,6966 26783,6844 27048,6721 27313,6599 27578,6477 27843,6355 28108,6234 28373,6112 28638,5990 28903,5868 29169,5747 29434,5625 29699,5503 29965,5382 30230,5260 30496,5138 30761,5016 31027,4894 31293,4773 31559,4651 31825,4529 32091,4407 32357,4285 32623,4163 32889,4041 33155,3919 33422,3797 33688,3676 33954,3554 34220,3432 34487,3310"/>
 <path fill="rgb(255,66,14)" stroke="none" d="M 2455,0 L 2455,16215 2705,16465 2705,16465 2455,16215 Z"/>
 <path fill="none" stroke="rgb(255,66,14)" stroke-linejoin="round" d="M 2455,0 L 2455,16215 2705,16465 2705,16465 2455,16215 Z"/>
 <path fill="rgb(255,66,14)" stroke="none" d="M 4055,0 L 4055,15975 4305,16225 4305,16225 4055,15975 Z"/>
 <path fill="none" stroke="rgb(255,66,14)" stroke-linejoin="round" d="M 4055,0 L 4055,15975 4305,16225 4305,16225 4055,15975 Z"/>
 <path fill="rgb(255,66,14)" stroke="none" d="M 4992,0 L 4992,15823 5242,16073 5242,16073 4992,15823 Z"/>
 <path fill="none" stroke="rgb(255,66,14)" stroke-linejoin="round" d="M 4992,0 L 4992,15823 5242,16073 5242,16073 4992,15823 Z"/>
 <path fill="rgb(255,66,14)" stroke="none" d="M 5656,0 L 5656,15636 5906,15886 5906,15886 5656,15636 Z"/>
 <path fill="none" stroke="rgb(255,66,14)" stroke-linejoin="round" d="M 5656,0 L 5656,15636 5906,15886 5906,15886 5656,15636 Z"/>
 <path fill="rgb(255,66,14)" stroke="none" d="M 6172,0 L 6172,15565 6422,15815 6422,15815 6172,15565 Z"/>
 <path fill="none" stroke="rgb(255,66,14)" stroke-linejoin="round" d="M 6172,0 L 6172,15565 6422,15815 6422,15815 6172,15565 Z"/>
 <path fill="rgb(255,66,14)" stroke="none" d="M 6593,0 L 6593,15461 6843,15711 6843,15711 6593,15461 Z"/>
 <path fill="none" stroke="rgb(255,66,14)" stroke-linejoin="round" d="M 6593,0 L 6593,15461 6843,15711 6843,15711 6593,15461 Z"/>
 <path fill="rgb(255,66,14)" stroke="none" d="M 6949,0 L 6949,15342 7199,15592 7199,15592 6949,15342 Z"/>
 <path fill="none" stroke="rgb(255,66,14)" stroke-linejoin="round" d="M 6949,0 L 6949,15342 7199,15592 7199,15592 6949,15342 Z"/>
 <path fill="rgb(255,66,14)" stroke="none" d="M 7257,0 L 7257,15240 7507,15490 7507,15490 7257,15240 Z"/>
 <path fill="none" stroke="rgb(255,66,14)" stroke-linejoin="round" d="M 7257,0 L 7257,15240 7507,15490 7507,15490 7257,15240 Z"/>
 <path fill="rgb(255,66,14)" stroke="none" d="M 7529,0 L 7529,15143 7779,15393 7779,15393 7529,15143 Z"/>
 <path fill="none" stroke="rgb(255,66,14)" stroke-linejoin="round" d="M 7529,0 L 7529,15143 7779,15393 7779,15393 7529,15143 Z"/>
 <path fill="rgb(255,66,14)" stroke="none" d="M 7773,0 L 7773,15043 8023,15293 8023,15293 7773,15043 Z"/>
 <path fill="none" stroke="rgb(255,66,14)" stroke-linejoin="round" d="M 7773,0 L 7773,15043 8023,15293 8023,15293 7773,15043 Z"/>
 <path fill="rgb(255,66,14)" stroke="none" d="M 13091,0 L 13091,12822 13341,13072 13341,13072 13091,12822 Z"/>
 <path fill="none" stroke="rgb(255,66,14)" stroke-linejoin="round" d="M 13091,0 L 13091,12822 13341,13072 13341,13072 13091,12822 Z"/>
 <path fill="rgb(255,66,14)" stroke="none" d="M 18409,0 L 18409,10419 18659,10668 18659,10668 18409,10419 Z"/>
 <path fill="none" stroke="rgb(255,66,14)" stroke-linejoin="round" d="M 18409,0 L 18409,10419 18659,10668 18659,10668 18409,10419 Z"/>
 <path fill="rgb(255,66,14)" stroke="none" d="M 23726,0 L 23726,7950 23976,8200 23976,8200 23726,7950 Z"/>
 <path fill="none" stroke="rgb(255,66,14)" stroke-linejoin="round" d="M 23726,0 L 23726,7950 23976,8200 23976,8200 23726,7950 Z"/>
 <path fill="rgb(255,66,14)" stroke="none" d="M 29044,0 L 29044,5500 29294,5750 29294,5750 29044,5500 Z"/>
 <path fill="none" stroke="rgb(255,66,14)" stroke-linejoin="round" d="M 29044,0 L 29044,5500 29294,5750 29294,5750 29044,5500 Z"/>
 <path fill="rgb(255,66,14)" stroke="none" d="M 34362,0 L 34362,3063 34612,3313 34612,3313 34362,3063 Z"/>
 <path fill="none" stroke="rgb(255,66,14)" stroke-linejoin="round" d="M 34362,0 L 34362,3063 34612,3313 34612,3313 34362,3063 Z"/>
 <path fill="none" stroke="rgb(255,102,204)" stroke-width="80" stroke-linejoin="round" d="M 2580,0 L 2668,17167 2756,17154 2843,17141 2931,17128 3017,17115 3104,17102 3189,17089 3274,17077 3358,17064 3440,17052 3522,17041 3602,17030 3680,17019 3758,17008 3833,16998 3907,16989 3978,16980 4048,16971 4115,16963 4180,16956 4243,16949 4304,16943 4362,16938 4418,16934 4472,16930 4524,16927 4575,16924 4624,16922 4671,16921 4717,16921 4761,16921 4804,16921 4846,16923 4887,16925 4927,16927 4966,16931 5005,16935 5043,16939 5080,16944 5117,16950 5153,16956 5190,16963 5226,16970 5261,16978 5296,16986 5331,16994 5366,17003 5400,17011 5434,17020 5467,17028 5501,17037 5533,17045 5566,17053 5598,17060 5629,17067 5660,17074 5691,17080 5722,17085 5752,17090 5781,17093 5810,17096 5839,17098 5868,17098 5895,17098 5923,17097 5950,17095 5977,17093 6003,17089 6030,17086 6055,17081 6081,17076 6106,17071 6131,17065 6155,17059 6180,17053 6203,17046 6227,17039 6251,17032 6274,17025 6297,17019 6319,17012 6342,17005 6364,16998 6386,16992 6408,16985 6429,16979 6451,16973 6472,16967 6493,16961 6514,16955 6535,16949 6556,16943 6576,16938 6597,16933 6617,16927 6637,16922 6658,16917 6678,16913 6698,16908 6718,16903 6738,16899 6757,16895 6777,16890 6797,16886 6816,16883 6836,16879 6855,16875 6873,16872 6892,16869 6910,16866 6929,16863 6946,16860 6964,16858 6981,16855 6997,16853 7014,16851 7029,16850 7045,16848 7059,16847 7074,16846 7088,16845 7101,16845 7127,16844 7139,16844 7152,16844 7165,16844 7177,16844 7191,16843 7204,16843 7218,16843 7233,16842 7248,16841 7264,16840 7281,16839 7299,16837 7318,16834 7338,16832 7359,16828 7382,16824 7406,16820 7432,16815 7458,16809 7484,16804 7511,16797 7537,16791 7562,16785 7587,16778 7609,16772 7630,16767 7649,16762 7665,16757 7678,16753 7694,16750 7685,16747 7673,16753 7654,16758 7630,16764 7601,16773 7570,16783 7536,16793 7502,16805 7469,16816 7439,16827 7412,16837 7390,16846 7375,16853 7368,16857 7384,16860 7410,16854 7449,16845 7503,16832 7574,16814 7662,16791 7769,16762 7898,16726 8047,16684 8217,16635 8407,16578 8614,16516 8838,16447 9077,16373 9329,16293 9594,16208 9869,16118 10154,16024 10447,15926 10746,15824 11051,15719 11360,15611 11671,15500 11983,15387 12295,15273 12606,15157 12913,15039 13216,14921 13513,14802 13804,14684 14090,14565 14372,14446 14649,14327 14922,14208 15192,14088 15458,13969 15722,13849 15982,13730 16241,13610 16498,13490 16753,13370 17008,13250 17262,13129 17515,13009 17769,12888 18023,12767 18277,12646 18534,12525 18791,12403 19050,12282 19310,12160 19572,12038 19835,11916 20099,11794 20364,11672 20629,11550 20895,11427 21163,11305 21430,11183 21699,11061 21967,10939 22236,10817 22506,10695 22775,10573 23044,10453 23313,10331 23582,10210 23851,10089 24119,9969 24386,9848 24654,9728 24921,9608 25188,9489 25454,9369 25720,9249 25986,9129 26252,9009 26517,8889 26783,8768 27048,8648 27313,8526 27578,8405 27843,8282 28108,8160 28373,8036 28638,7912 28903,7787 29169,7662 29434,7535 29699,7408 29965,7279 30230,7150 30496,7020 30761,6890 31027,6758 31293,6626 31559,6493 31825,6360 32091,6226 32357,6092 32623,5957 32889,5822 33155,5687 33422,5551 33688,5415 33954,5279 34220,5143 34487,5006"/>
 <path fill="rgb(255,102,204)" stroke="none" d="M 2455,0 L 2580,17042 2705,17292 2455,17042 Z"/>
 <path fill="none" stroke="rgb(255,102,204)" stroke-linejoin="round" d="M 2455,0 L 2580,17042 2705,17292 2455,17042 Z"/>
 <path fill="rgb(255,102,204)" stroke="none" d="M 4055,0 L 4180,16824 4305,17074 4055,16824 Z"/>
 <path fill="none" stroke="rgb(255,102,204)" stroke-linejoin="round" d="M 4055,0 L 4180,16824 4305,17074 4055,16824 Z"/>
 <path fill="rgb(255,102,204)" stroke="none" d="M 4992,0 L 5117,16831 5242,17081 4992,16831 Z"/>
 <path fill="none" stroke="rgb(255,102,204)" stroke-linejoin="round" d="M 4992,0 L 5117,16831 5242,17081 4992,16831 Z"/>
 <path fill="rgb(255,102,204)" stroke="none" d="M 5656,0 L 5781,16971 5906,17221 5656,16971 Z"/>
 <path fill="none" stroke="rgb(255,102,204)" stroke-linejoin="round" d="M 5656,0 L 5781,16971 5906,17221 5656,16971 Z"/>
 <path fill="rgb(255,102,204)" stroke="none" d="M 6172,0 L 6297,16887 6422,17137 6172,16887 Z"/>
 <path fill="none" stroke="rgb(255,102,204)" stroke-linejoin="round" d="M 6172,0 L 6297,16887 6422,17137 6172,16887 Z"/>
 <path fill="rgb(255,102,204)" stroke="none" d="M 6593,0 L 6718,16774 6843,17024 6593,16774 Z"/>
 <path fill="none" stroke="rgb(255,102,204)" stroke-linejoin="round" d="M 6593,0 L 6718,16774 6843,17024 6593,16774 Z"/>
 <path fill="rgb(255,102,204)" stroke="none" d="M 6949,0 L 7074,16720 7199,16970 6949,16720 Z"/>
 <path fill="none" stroke="rgb(255,102,204)" stroke-linejoin="round" d="M 6949,0 L 7074,16720 7199,16970 6949,16720 Z"/>
 <path fill="rgb(255,102,204)" stroke="none" d="M 7257,0 L 7382,16695 7507,16945 7257,16695 Z"/>
 <path fill="none" stroke="rgb(255,102,204)" stroke-linejoin="round" d="M 7257,0 L 7382,16695 7507,16945 7257,16695 Z"/>
 <path fill="rgb(255,102,204)" stroke="none" d="M 7529,0 L 7654,16639 7779,16889 7529,16639 Z"/>
 <path fill="none" stroke="rgb(255,102,204)" stroke-linejoin="round" d="M 7529,0 L 7654,16639 7779,16889 7529,16639 Z"/>
 <path fill="rgb(255,102,204)" stroke="none" d="M 7773,0 L 7898,16559 8023,16809 7773,16559 Z"/>
 <path fill="none" stroke="rgb(255,102,204)" stroke-linejoin="round" d="M 7773,0 L 7898,16559 8023,16809 7773,16559 Z"/>
 <path fill="rgb(255,102,204)" stroke="none" d="M 13091,0 L 13216,14677 13341,14927 13091,14677 Z"/>
 <path fill="none" stroke="rgb(255,102,204)" stroke-linejoin="round" d="M 13091,0 L 13216,14677 13341,14927 13091,14677 Z"/>
 <path fill="rgb(255,102,204)" stroke="none" d="M 18409,0 L 18534,12278 18659,12528 18409,12278 Z"/>
 <path fill="none" stroke="rgb(255,102,204)" stroke-linejoin="round" d="M 18409,0 L 18534,12278 18659,12528 18409,12278 Z"/>
 <path fill="rgb(255,102,204)" stroke="none" d="M 23726,0 L 23851,9844 23976,10094 23726,9844 Z"/>
 <path fill="none" stroke="rgb(255,102,204)" stroke-linejoin="round" d="M 23726,0 L 23851,9844 23976,10094 23726,9844 Z"/>
 <path fill="rgb(255,102,204)" stroke="none" d="M 29044,0 L 29169,7410 29294,7660 29044,7410 Z"/>
 <path fill="none" stroke="rgb(255,102,204)" stroke-linejoin="round" d="M 29044,0 L 29169,7410 29294,7660 29044,7410 Z"/>
 <path fill="rgb(255,102,204)" stroke="none" d="M 34362,0 L 34487,4745 34612,4995 34362,4745 Z"/>
 <path fill="none" stroke="rgb(255,102,204)" stroke-linejoin="round" d="M 34362,0 L 34487,4745 34612,4995 34362,4745 Z"/>
 <path fill="none" stroke="rgb(255,211,32)" stroke-width="80" stroke-linejoin="round" d="M 2580,0 L 2668,14830 2756,15014 2843,15198 2931,15381 3017,15561 3104,15740 3189,15915 3274,16086 3358,16253 3440,16416 3522,16572 3602,16723 3680,16866 3758,17003 3833,17131 3907,17251 3978,17361 4048,17461 4115,17551 4180,17630 4243,17697 4304,17752 4362,17796 4418,17828 4472,17851 4524,17865 4575,17870 4624,17867 4671,17858 4717,17843 4761,17822 4804,17797 4846,17769 4887,17737 4927,17704 4966,17670 5005,17634 5043,17600 5080,17566 5117,17535 5153,17506 5190,17480 5226,17458 5261,17439 5296,17422 5331,17409 5366,17397 5400,17388 5434,17381 5467,17376 5501,17372 5533,17369 5566,17368 5598,17367 5629,17368 5660,17368 5691,17369 5722,17369 5752,17370 5781,17370 5810,17369 5839,17367 5868,17365 5895,17361 5923,17357 5950,17353 5977,17348 6003,17342 6030,17335 6055,17329 6081,17321 6106,17314 6131,17306 6155,17298 6180,17290 6203,17282 6227,17274 6251,17266 6274,17258 6297,17250 6319,17243 6342,17235 6364,17228 6386,17221 6408,17215 6429,17208 6451,17202 6472,17196 6493,17190 6514,17184 6535,17179 6556,17173 6576,17168 6597,17162 6617,17157 6637,17151 6658,17146 6678,17140 6698,17135 6718,17129 6738,17124 6757,17118 6777,17112 6797,17106 6816,17100 6836,17094 6855,17088 6873,17081 6892,17075 6910,17068 6929,17061 6946,17054 6964,17046 6981,17039 6997,17031 7014,17023 7029,17015 7045,17006 7059,16997 7074,16988 7088,16979 7101,16970 7114,16960 7127,16950 7139,16940 7152,16929 7165,16919 7177,16908 7191,16898 7204,16887 7218,16877 7233,16866 7248,16856 7264,16846 7281,16836 7299,16826 7318,16816 7338,16807 7359,16798 7382,16789 7406,16781 7432,16773 7458,16765 7484,16758 7511,16751 7537,16746 7562,16741 7587,16736 7609,16733 7630,16730 7649,16729 7665,16728 7678,16729 7688,16731 7694,16734 7693,16738 7685,16751 7673,16760 7654,16771 7630,16783 7601,16796 7570,16811 7536,16826 7502,16841 7469,16856 7439,16870 7412,16882 7390,16892 7375,16899 7368,16902 7371,16902 7384,16897 7410,16887 7449,16872 7503,16850 7574,16822 7662,16786 7769,16743 7898,16691 8047,16630 8217,16560 8407,16480 8614,16393 8838,16297 9077,16195 9329,16086 9594,15971 9869,15850 10154,15725 10447,15596 10746,15463 11051,15327 11360,15189 11671,15049 11983,14907 12295,14766 12606,14624 12913,14483 13216,14343 13513,14205 13804,14069 14090,13936 14372,13805 14649,13675 14922,13548 15192,13422 15458,13297 15722,13174 15982,13052 16241,12931 16498,12811 16753,12691 17008,12572 17262,12453 17515,12335 17769,12217 18023,12098 18277,11979 18534,11860 18791,11740 19050,11619 19310,11498 19572,11375 19835,11253 20099,11130 20364,11006 20629,10882 20895,10758 21163,10633 21430,10508 21699,10384 21967,10259 22236,10134 22506,10009 22775,9884 23044,9759 23313,9634 23582,9510 23851,9386 24119,9263 24386,9140 24654,9017 24921,8895 25188,8773 25454,8651 25720,8530 25986,8409 26252,8289 26517,8168 26783,8048 27048,7927 27313,7807 27578,7687 27843,7567 28108,7447 28373,7327 28638,7206 28903,7086 29169,6965 29434,6845 29699,6724 29965,6602 30230,6481 30496,6359 30761,6238 31027,6116 31293,5993 31559,5871 31825,5749 32091,5626 32357,5503 32623,5380 32889,5258 33155,5135 33422,5011 33688,4888 33954,4765 34220,4642 34487,4519"/>
 <path fill="rgb(255,211,32)" stroke="none" d="M 2455,0 L 2580,14830 2705,14955 2580,14830 2455,14705 Z"/>
 <path fill="none" stroke="rgb(255,211,32)" stroke-linejoin="round" d="M 2455,0 L 2580,14830 2705,14955 2580,14830 2455,14705 Z"/>
 <path fill="rgb(255,211,32)" stroke="none" d="M 4055,0 L 4180,17697 4305,17822 4180,17697 4055,17572 Z"/>
 <path fill="none" stroke="rgb(255,211,32)" stroke-linejoin="round" d="M 4055,0 L 4180,17697 4305,17822 4180,17697 4055,17572 Z"/>
 <path fill="rgb(255,211,32)" stroke="none" d="M 4992,0 L 5117,17506 5242,17631 5117,17506 4992,17381 Z"/>
 <path fill="none" stroke="rgb(255,211,32)" stroke-linejoin="round" d="M 4992,0 L 5117,17506 5242,17631 5117,17506 4992,17381 Z"/>
 <path fill="rgb(255,211,32)" stroke="none" d="M 5656,0 L 5781,17369 5906,17494 5781,17369 5656,17244 Z"/>
 <path fill="none" stroke="rgb(255,211,32)" stroke-linejoin="round" d="M 5656,0 L 5781,17369 5906,17494 5781,17369 5656,17244 Z"/>
 <path fill="rgb(255,211,32)" stroke="none" d="M 6172,0 L 6297,17243 6422,17368 6297,17243 6172,17118 Z"/>
 <path fill="none" stroke="rgb(255,211,32)" stroke-linejoin="round" d="M 6172,0 L 6297,17243 6422,17368 6297,17243 6172,17118 Z"/>
 <path fill="rgb(255,211,32)" stroke="none" d="M 6593,0 L 6718,17124 6843,17249 6718,17124 6593,16999 Z"/>
 <path fill="none" stroke="rgb(255,211,32)" stroke-linejoin="round" d="M 6593,0 L 6718,17124 6843,17249 6718,17124 6593,16999 Z"/>
 <path fill="rgb(255,211,32)" stroke="none" d="M 6949,0 L 7074,16979 7199,17104 7074,16979 6949,16854 Z"/>
 <path fill="none" stroke="rgb(255,211,32)" stroke-linejoin="round" d="M 6949,0 L 7074,16979 7199,17104 7074,16979 6949,16854 Z"/>
 <path fill="rgb(255,211,32)" stroke="none" d="M 7257,0 L 7382,16781 7507,16906 7382,16781 7257,16656 Z"/>
 <path fill="none" stroke="rgb(255,211,32)" stroke-linejoin="round" d="M 7257,0 L 7382,16781 7507,16906 7382,16781 7257,16656 Z"/>
 <path fill="rgb(255,211,32)" stroke="none" d="M 7529,0 L 7654,16783 7779,16908 7654,16783 7529,16658 Z"/>
 <path fill="none" stroke="rgb(255,211,32)" stroke-linejoin="round" d="M 7529,0 L 7654,16783 7779,16908 7654,16783 7529,16658 Z"/>
 <path fill="rgb(255,211,32)" stroke="none" d="M 7773,0 L 7898,16630 8023,16755 7898,16630 7773,16505 Z"/>
 <path fill="none" stroke="rgb(255,211,32)" stroke-linejoin="round" d="M 7773,0 L 7898,16630 8023,16755 7898,16630 7773,16505 Z"/>
 <path fill="rgb(255,211,32)" stroke="none" d="M 13091,0 L 13216,14205 13341,14330 13216,14205 13091,14080 Z"/>
 <path fill="none" stroke="rgb(255,211,32)" stroke-linejoin="round" d="M 13091,0 L 13216,14205 13341,14330 13216,14205 13091,14080 Z"/>
 <path fill="rgb(255,211,32)" stroke="none" d="M 18409,0 L 18534,11740 18659,11865 18534,11740 18409,11615 Z"/>
 <path fill="none" stroke="rgb(255,211,32)" stroke-linejoin="round" d="M 18409,0 L 18534,11740 18659,11865 18534,11740 18409,11615 Z"/>
 <path fill="rgb(255,211,32)" stroke="none" d="M 23726,0 L 23851,9263 23976,9388 23851,9263 23726,9138 Z"/>
 <path fill="none" stroke="rgb(255,211,32)" stroke-linejoin="round" d="M 23726,0 L 23851,9263 23976,9388 23851,9263 23726,9138 Z"/>
 <path fill="rgb(255,211,32)" stroke="none" d="M 29044,0 L 29169,6845 29294,6970 29169,6845 29044,6720 Z"/>
 <path fill="none" stroke="rgb(255,211,32)" stroke-linejoin="round" d="M 29044,0 L 29169,6845 29294,6970 29169,6845 29044,6720 Z"/>
 <path fill="rgb(255,211,32)" stroke="none" d="M 34362,0 L 34487,4395 34612,4520 34487,4395 34362,4270 Z"/>
 <path fill="none" stroke="rgb(255,211,32)" stroke-linejoin="round" d="M 34362,0 L 34487,4395 34612,4520 34487,4395 34362,4270 Z"/>
 <text class="TextShape"><tspan class="TextParagraph" font-family="Liberation Sans, sans-serif" font-size="353px" font-weight="400"><tspan class="TextPosition" x="2487" y="19555"><tspan fill="rgb(0,0,0)" stroke="none">1</tspan></tspan></tspan></text>
 <text class="TextShape"><tspan class="TextParagraph" font-family="Liberation Sans, sans-serif" font-size="353px" font-weight="400"><tspan class="TextPosition" x="7713" y="19555"><tspan fill="rgb(0,0,0)" stroke="none">10</tspan></tspan></tspan></text>
 <text class="TextShape"><tspan class="TextParagraph" font-family="Liberation Sans, sans-serif" font-size="353px" font-weight="400"><tspan class="TextPosition" x="12938" y="19555"><tspan fill="rgb(0,0,0)" stroke="none">100</tspan></tspan></tspan></text>
 <text class="TextShape"><tspan class="TextParagraph" font-family="Liberation Sans, sans-serif" font-size="353px" font-weight="400"><tspan class="TextPosition" x="18163" y="19555"><tspan fill="rgb(0,0,0)" stroke="none">1000</tspan></tspan></tspan></text>
 <text class="TextShape"><tspan class="TextParagraph" font-family="Liberation Sans, sans-serif" font-size="353px" font-weight="400"><tspan class="TextPosition" x="23389" y="19555"><tspan fill="rgb(0,0,0)" stroke="none">10000</tspan></tspan></tspan></text>
 <text class="TextShape"><tspan class="TextParagraph" font-family="Liberation Sans, sans-serif" font-size="353px" font-weight="400"><tspan class="TextPosition" x="28614" y="19555"><tspan fill="rgb(0,0,0)" stroke="none">100000</tspan></tspan></tspan></text>
 <text class="TextShape"><tspan class="TextParagraph" font-family="Liberation Sans, sans-serif" font-size="353px" font-weight="400"><tspan class="TextPosition" x="33840" y="19555"><tspan fill="rgb(0,0,0)" stroke="none">1000000</tspan></tspan></tspan></text>
 <text class="TextShape"><tspan class="TextParagraph" font-family="Liberation Sans, sans-serif" font-size="353px" font-weight="400"><tspan class="TextPosition" x="2145" y="19134"><tspan fill="rgb(0,0,0)" stroke="none">1</tspan></tspan></tspan></text>
 <text class="TextShape"><tspan class="TextParagraph" font-family="Liberation Sans, sans-serif" font-size="353px" font-weight="400"><tspan class="TextPosition" x="1960" y="16688"><tspan fill="rgb(0,0,0)" stroke="none">10</tspan></tspan></tspan></text>
 <text class="TextShape"><tspan class="TextParagraph" font-family="Liberation Sans, sans-serif" font-size="353px" font-weight="400"><tspan class="TextPosition" x="1774" y="14243"><tspan fill="rgb(0,0,0)" stroke="none">100</tspan></tspan></tspan></text>
 <text class="TextShape"><tspan class="TextParagraph" font-family="Liberation Sans, sans-serif" font-size="353px" font-weight="400"><tspan class="TextPosition" x="1589" y="11798"><tspan fill="rgb(0,0,0)" stroke="none">1000</tspan></tspan></tspan></text>
 <text class="TextShape"><tspan class="TextParagraph" font-family="Liberation Sans, sans-serif" font-size="353px" font-weight="400"><tspan class="TextPosition" x="1404" y="9352"><tspan fill="rgb(0,0,0)" stroke="none">10000</tspan></tspan></tspan></text>
 <text class="TextShape"><tspan class="TextParagraph" font-family="Liberation Sans, sans-serif" font-size="353px" font-weight="400"><tspan class="TextPosition" x="1219" y="6907"><tspan fill="rgb(0,0,0)" stroke="none">100000</tspan></tspan></tspan></text>
 <text class="TextShape"><tspan class="TextParagraph" font-family="Liberation Sans, sans-serif" font-size="353px" font-weight="400"><tspan class="TextPosition" x="1034" y="4462"><tspan fill="rgb(0,0,0)" stroke="none">1000000</tspan></tspan></tspan></text>
 <text class="TextShape"><tspan class="TextParagraph" font-family="Liberation Sans, sans-serif" font-size="353px" font-weight="400"><tspan class="TextPosition" x="848" y="2016"><tspan fill="rgb(0,0,0)" stroke="none">10000000</tspan></tspan></tspan></text>
 <text class="TextShape"><tspan class="TextParagraph" font-family="Liberation Sans, sans-serif" font-size="459px" font-weight="400"><tspan class="TextPosition" x="16955" y="1089"><tspan fill="rgb(0,0,0)" stroke="none">Inner() vs Inner2() Execution Time</tspan></tspan></tspan></text>
 <path fill="none" stroke="rgb(255,211,32)" stroke-width="80" stroke-linejoin="round" d="M 36993,0 L 37793,9811"/>
 <path fill="rgb(255,211,32)" stroke="none" d="M 37287,0 L 37393,9811 37498,9917 37393,9811 37287,9706 Z"/>
 <path fill="none" stroke="rgb(255,211,32)" stroke-linejoin="round" d="M 37287,0 L 37393,9811 37498,9917 37393,9811 37287,9706 Z"/>
 <path fill="none" stroke="rgb(255,102,204)" stroke-width="80" stroke-linejoin="round" d="M 36993,0 L 37793,10256"/>
 <path fill="rgb(255,102,204)" stroke="none" d="M 37287,0 L 37393,10151 37498,10362 37287,10151 Z"/>
 <path fill="none" stroke="rgb(255,102,204)" stroke-linejoin="round" d="M 37287,0 L 37393,10151 37498,10362 37287,10151 Z"/>
 <path fill="none" stroke="rgb(255,66,14)" stroke-width="80" stroke-linejoin="round" d="M 36993,0 L 37793,10700"/>
 <path fill="rgb(255,66,14)" stroke="none" d="M 37287,0 L 37287,10595 37498,10806 37498,10806 37287,10595 Z"/>
 <path fill="none" stroke="rgb(255,66,14)" stroke-linejoin="round" d="M 37287,0 L 37287,10595 37498,10806 37498,10806 37287,10595 Z"/>
 <path fill="none" stroke="rgb(87,157,28)" stroke-width="80" stroke-linejoin="round" d="M 36993,0 L 37793,11145"/>
 <path fill="rgb(87,157,28)" stroke="none" d="M 37287,0 L 37498,11251 37393,11251 37287,11040 Z"/>
 <path fill="none" stroke="rgb(87,157,28)" stroke-linejoin="round" d="M 37287,0 L 37498,11251 37393,11251 37287,11040 Z"/>
 <text class="TextShape"><tspan class="TextParagraph" font-family="Liberation Sans, sans-serif" font-size="353px" font-weight="400"><tspan class="TextPosition" x="37893" y="9930"><tspan fill="rgb(0,0,0)" stroke="none">Inner() Release</tspan></tspan></tspan></text>
 <text class="TextShape"><tspan class="TextParagraph" font-family="Liberation Sans, sans-serif" font-size="353px" font-weight="400"><tspan class="TextPosition" x="37893" y="10375"><tspan fill="rgb(0,0,0)" stroke="none">Inner2() Release</tspan></tspan></tspan></text>
 <text class="TextShape"><tspan class="TextParagraph" font-family="Liberation Sans, sans-serif" font-size="353px" font-weight="400"><tspan class="TextPosition" x="37893" y="10819"><tspan fill="rgb(0,0,0)" stroke="none">Inner() Debug</tspan></tspan></tspan></text>
 <text class="TextShape"><tspan class="TextParagraph" font-family="Liberation Sans, sans-serif" font-size="353px" font-weight="400"><tspan class="TextPosition" x="37893" y="11264"><tspan fill="rgb(0,0,0)" stroke="none">Inner2() Debug</tspan></tspan></tspan></text>
 <text class="TextShape"><tspan class="TextParagraph" font-family="Liberation Sans, sans-serif" font-size="318px" font-weight="400"><tspan class="TextPosition" x="17145" y="20389"><tspan fill="rgb(0,0,0)" stroke="none">Size of vector (elements)</tspan></tspan></tspan></text>
 <text class="TextShape" transform="translate(811,11726) rotate(-90) translate(-811,-11726)"><tspan class="TextParagraph" font-family="Liberation Sans, sans-serif" font-size="318px" font-weight="400"><tspan class="TextPosition" x="811" y="11726"><tspan fill="rgb(0,0,0)" stroke="none">CPU Time (ns)</tspan></tspan></tspan></text>
</svg>